<svg xmlns="http://www.w3.org/2000/svg" version="1.1" viewBox="32.67 32.39 446.96 447.45"><path d="" stroke="none" fill="#080404" fill-rule="evenodd"/><path d="M 262.500 33.004 C 243.050 37.232, 246.858 102.057, 266.413 99.632 C 277.373 98.273, 278.997 93.962, 278.998 66.218 C 279.001 36.733, 275.721 30.130, 262.500 33.004 M 103.719 94.777 C 92.206 101.910, 94.520 108.838, 115.441 129.883 C 136.843 151.412, 145.090 153.866, 151.394 140.583 C 158.045 126.567, 116.631 86.776, 103.719 94.777 M 399.400 95.869 C 390.070 102.731, 367.191 127.465, 366.432 131.509 C 364.292 142.917, 375.805 151.868, 385.800 146.568 C 390.921 143.852, 419.926 113.744, 420.988 110.042 C 424.565 97.569, 410.047 88.037, 399.400 95.869 M 252.500 113.700 C 150.422 119.578, 87.793 228.457, 134.230 319.305 C 187.039 422.619, 337.309 420.684, 387.148 316.048 C 433.142 219.484, 358.682 107.585, 252.500 113.700 M 240.500 142.522 C 148.853 159.613, 114.181 270.737, 180.115 336.054 C 251.599 406.868, 373.322 355.803, 373.322 255 C 373.322 184.202, 309.015 129.745, 240.500 142.522 M 230.364 166.493 C 203.739 172.284, 172.060 201.525, 182.189 210.961 C 186.591 215.063, 189.617 213.688, 196.596 204.416 C 207.882 189.420, 223.001 180.973, 241.982 179.060 C 251.305 178.120, 254 176.425, 254 171.500 C 254 164.986, 245.537 163.194, 230.364 166.493 M 174.105 220.895 C 170.042 224.958, 168.615 240.615, 172 244 C 177.288 249.288, 183.371 245.214, 184.373 235.713 C 184.733 232.296, 185.279 228.365, 185.587 226.978 C 186.924 220.947, 178.511 216.489, 174.105 220.895 M 39.304 247.929 C 34.804 250.711, 32.667 254.437, 32.667 259.500 C 32.667 264.563, 34.804 268.289, 39.304 271.071 C 45.212 274.724, 90.824 273.505, 94.913 269.585 C 101.176 263.581, 101.194 255.436, 94.959 249.458 C 90.831 245.501, 45.256 244.248, 39.304 247.929 M 419.304 247.929 C 414.804 250.711, 412.667 254.437, 412.667 259.500 C 412.667 264.563, 414.804 268.289, 419.304 271.071 C 425.212 274.724, 470.824 273.505, 474.913 269.585 C 481.176 263.581, 481.194 255.436, 474.959 249.458 C 470.831 245.501, 425.256 244.248, 419.304 247.929 M 135.049 362.211 C 130.438 363.481, 101.904 391.501, 98.897 397.712 C 93.363 409.144, 105.676 421.433, 116.800 415.579 C 122.726 412.460, 151.790 381.730, 152.515 377.815 C 154.401 367.639, 145.196 359.415, 135.049 362.211 M 376.209 362.068 C 368.138 363.776, 363.572 373.521, 367.432 380.800 C 369.146 384.031, 399.562 414.310, 402.684 415.893 C 409.512 419.354, 418.751 414.843, 421.016 406.943 C 422.930 400.272, 421.249 397.702, 403.195 379.684 C 385.368 361.891, 383.329 360.560, 376.209 362.068 M 262.016 413.097 C 252.420 415.151, 250.619 421.371, 251.154 450.597 C 251.597 474.786, 254.866 481.061, 266.288 479.649 C 277.560 478.255, 278.992 474.544, 278.996 446.718 C 279.001 416.367, 275.854 410.136, 262.016 413.097" stroke="none" fill="#040404" fill-rule="evenodd"/></svg>